G04*
G04 #@! TF.GenerationSoftware,Altium Limited,Altium Designer,18.1.7 (191)*
G04*
G04 Layer_Physical_Order=2*
G04 Layer_Color=16711680*
%FSLAX25Y25*%
%MOIN*%
G70*
G01*
G75*
%ADD14C,0.01000*%
%ADD77C,0.02000*%
%ADD81C,0.01200*%
%ADD85C,0.06000*%
%ADD86R,0.06000X0.06000*%
%ADD87C,0.05543*%
%ADD88C,0.07087*%
%ADD89C,0.03000*%
G36*
X207034Y210428D02*
X208529Y210027D01*
X209960Y209435D01*
X211300Y208661D01*
X212529Y207718D01*
X213623Y206623D01*
X214496Y205486D01*
Y11811D01*
Y11170D01*
X214329Y9900D01*
X213998Y8663D01*
X213507Y7480D01*
X212867Y6370D01*
X212087Y5354D01*
X211181Y4448D01*
X210165Y3669D01*
X209056Y3028D01*
X207872Y2538D01*
X206635Y2206D01*
X205365Y2039D01*
X11171D01*
X9900Y2206D01*
X8663Y2538D01*
X7480Y3028D01*
X6370Y3669D01*
X5354Y4448D01*
X4448Y5354D01*
X3669Y6370D01*
X3028Y7480D01*
X2538Y8663D01*
X2206Y9900D01*
X2039Y11171D01*
Y11811D01*
Y205486D01*
X2912Y206623D01*
X4007Y207718D01*
X5235Y208661D01*
X6576Y209435D01*
X8006Y210027D01*
X9502Y210428D01*
X11037Y210630D01*
X16327D01*
X16722Y210179D01*
X16691Y209941D01*
X16793Y209166D01*
X17092Y208444D01*
X17568Y207824D01*
X18188Y207348D01*
X18910Y207049D01*
X19685Y206947D01*
X20460Y207049D01*
X21182Y207348D01*
X21802Y207824D01*
X22523Y207777D01*
X22573Y207711D01*
X23111Y207298D01*
X23737Y207039D01*
X24409Y206950D01*
X25082Y207039D01*
X25708Y207298D01*
X26246Y207711D01*
X26401Y207913D01*
X27143D01*
X27297Y207711D01*
X27835Y207298D01*
X28462Y207039D01*
X29134Y206950D01*
X29806Y207039D01*
X30432Y207298D01*
X30970Y207711D01*
X31125Y207913D01*
X31867D01*
X32022Y207711D01*
X32560Y207298D01*
X33186Y207039D01*
X33858Y206950D01*
X34530Y207039D01*
X35157Y207298D01*
X35695Y207711D01*
X35850Y207913D01*
X36591D01*
X36746Y207711D01*
X37284Y207298D01*
X37911Y207039D01*
X38583Y206950D01*
X39255Y207039D01*
X39881Y207298D01*
X40419Y207711D01*
X40470Y207777D01*
X41190Y207824D01*
X41810Y207348D01*
X42532Y207049D01*
X43307Y206947D01*
X44082Y207049D01*
X44804Y207348D01*
X45424Y207824D01*
X45900Y208444D01*
X46199Y209166D01*
X46301Y209941D01*
X46270Y210179D01*
X46665Y210630D01*
X93098D01*
X93494Y210179D01*
X93463Y209941D01*
X93565Y209166D01*
X93864Y208444D01*
X94340Y207824D01*
X94960Y207348D01*
X95682Y207049D01*
X96457Y206947D01*
X97232Y207049D01*
X97954Y207348D01*
X98574Y207824D01*
X99294Y207777D01*
X99345Y207711D01*
X99883Y207298D01*
X100509Y207039D01*
X101181Y206950D01*
X101853Y207039D01*
X102480Y207298D01*
X103017Y207711D01*
X103173Y207913D01*
X103914D01*
X104069Y207711D01*
X104607Y207298D01*
X105233Y207039D01*
X105905Y206950D01*
X106578Y207039D01*
X107204Y207298D01*
X107742Y207711D01*
X107897Y207913D01*
X108639D01*
X108794Y207711D01*
X109331Y207298D01*
X109958Y207039D01*
X110630Y206950D01*
X111302Y207039D01*
X111928Y207298D01*
X112466Y207711D01*
X112621Y207913D01*
X113363D01*
X113518Y207711D01*
X114056Y207298D01*
X114682Y207039D01*
X115354Y206950D01*
X116026Y207039D01*
X116653Y207298D01*
X117191Y207711D01*
X117241Y207777D01*
X117962Y207824D01*
X118582Y207348D01*
X119304Y207049D01*
X120079Y206947D01*
X120854Y207049D01*
X121576Y207348D01*
X122196Y207824D01*
X122672Y208444D01*
X122971Y209166D01*
X123073Y209941D01*
X123042Y210179D01*
X123437Y210630D01*
X169870D01*
X170266Y210179D01*
X170234Y209941D01*
X170336Y209166D01*
X170635Y208444D01*
X171111Y207824D01*
X171731Y207348D01*
X172453Y207049D01*
X173228Y206947D01*
X174003Y207049D01*
X174725Y207348D01*
X175346Y207824D01*
X176066Y207777D01*
X176116Y207711D01*
X176654Y207298D01*
X177281Y207039D01*
X177953Y206950D01*
X178625Y207039D01*
X179251Y207298D01*
X179789Y207711D01*
X179944Y207913D01*
X180686D01*
X180841Y207711D01*
X181379Y207298D01*
X182005Y207039D01*
X182677Y206950D01*
X183349Y207039D01*
X183976Y207298D01*
X184514Y207711D01*
X184669Y207913D01*
X185410D01*
X185565Y207711D01*
X186103Y207298D01*
X186729Y207039D01*
X187402Y206950D01*
X188074Y207039D01*
X188700Y207298D01*
X189238Y207711D01*
X189393Y207913D01*
X190135D01*
X190290Y207711D01*
X190828Y207298D01*
X191454Y207039D01*
X192126Y206950D01*
X192798Y207039D01*
X193424Y207298D01*
X193962Y207711D01*
X194013Y207777D01*
X194733Y207824D01*
X195353Y207348D01*
X196075Y207049D01*
X196850Y206947D01*
X197625Y207049D01*
X198347Y207348D01*
X198968Y207824D01*
X199443Y208444D01*
X199742Y209166D01*
X199845Y209941D01*
X199813Y210179D01*
X200209Y210630D01*
X205499D01*
X207034Y210428D01*
D02*
G37*
%LPC*%
G36*
X53831Y202984D02*
Y199516D01*
X57299D01*
X57228Y200060D01*
X56825Y201033D01*
X56183Y201869D01*
X55348Y202510D01*
X54375Y202913D01*
X53831Y202984D01*
D02*
G37*
G36*
X52831D02*
X52286Y202913D01*
X51313Y202510D01*
X50478Y201869D01*
X49837Y201033D01*
X49434Y200060D01*
X49362Y199516D01*
X52831D01*
Y202984D01*
D02*
G37*
G36*
X57299Y198516D02*
X53831D01*
Y195047D01*
X54375Y195119D01*
X55348Y195522D01*
X56183Y196163D01*
X56825Y196999D01*
X57228Y197971D01*
X57299Y198516D01*
D02*
G37*
G36*
X52831D02*
X49362D01*
X49434Y197971D01*
X49837Y196999D01*
X50478Y196163D01*
X51313Y195522D01*
X52286Y195119D01*
X52831Y195047D01*
Y198516D01*
D02*
G37*
G36*
X199331Y203050D02*
X198286Y202913D01*
X197313Y202510D01*
X196478Y201869D01*
X195837Y201033D01*
X195434Y200060D01*
X195296Y199016D01*
X195434Y197971D01*
X195837Y196999D01*
X196478Y196163D01*
X197313Y195522D01*
X198286Y195119D01*
X199331Y194981D01*
X200375Y195119D01*
X201348Y195522D01*
X202184Y196163D01*
X202825Y196999D01*
X203228Y197971D01*
X203365Y199016D01*
X203228Y200060D01*
X202825Y201033D01*
X202184Y201869D01*
X201348Y202510D01*
X200375Y202913D01*
X199331Y203050D01*
D02*
G37*
G36*
X189331D02*
X188286Y202913D01*
X187313Y202510D01*
X186478Y201869D01*
X185837Y201033D01*
X185434Y200060D01*
X185296Y199016D01*
X185434Y197971D01*
X185837Y196999D01*
X186478Y196163D01*
X187313Y195522D01*
X188286Y195119D01*
X189331Y194981D01*
X190375Y195119D01*
X191348Y195522D01*
X192183Y196163D01*
X192825Y196999D01*
X193228Y197971D01*
X193365Y199016D01*
X193228Y200060D01*
X192825Y201033D01*
X192183Y201869D01*
X191348Y202510D01*
X190375Y202913D01*
X189331Y203050D01*
D02*
G37*
G36*
X179331D02*
X178287Y202913D01*
X177313Y202510D01*
X176478Y201869D01*
X175837Y201033D01*
X175434Y200060D01*
X175296Y199016D01*
X175434Y197971D01*
X175837Y196999D01*
X176478Y196163D01*
X177313Y195522D01*
X178287Y195119D01*
X179331Y194981D01*
X180375Y195119D01*
X181348Y195522D01*
X182184Y196163D01*
X182825Y196999D01*
X183228Y197971D01*
X183365Y199016D01*
X183228Y200060D01*
X182825Y201033D01*
X182184Y201869D01*
X181348Y202510D01*
X180375Y202913D01*
X179331Y203050D01*
D02*
G37*
G36*
X113331D02*
X112286Y202913D01*
X111313Y202510D01*
X110478Y201869D01*
X109837Y201033D01*
X109434Y200060D01*
X109296Y199016D01*
X109434Y197971D01*
X109837Y196999D01*
X110478Y196163D01*
X111313Y195522D01*
X112286Y195119D01*
X113331Y194981D01*
X114375Y195119D01*
X115348Y195522D01*
X116183Y196163D01*
X116825Y196999D01*
X117228Y197971D01*
X117365Y199016D01*
X117228Y200060D01*
X116825Y201033D01*
X116183Y201869D01*
X115348Y202510D01*
X114375Y202913D01*
X113331Y203050D01*
D02*
G37*
G36*
X103331D02*
X102287Y202913D01*
X101313Y202510D01*
X100478Y201869D01*
X99837Y201033D01*
X99434Y200060D01*
X99296Y199016D01*
X99434Y197971D01*
X99837Y196999D01*
X100478Y196163D01*
X101313Y195522D01*
X102287Y195119D01*
X103331Y194981D01*
X104375Y195119D01*
X105348Y195522D01*
X106184Y196163D01*
X106825Y196999D01*
X107228Y197971D01*
X107365Y199016D01*
X107228Y200060D01*
X106825Y201033D01*
X106184Y201869D01*
X105348Y202510D01*
X104375Y202913D01*
X103331Y203050D01*
D02*
G37*
G36*
X93331D02*
X92286Y202913D01*
X91313Y202510D01*
X90478Y201869D01*
X89837Y201033D01*
X89434Y200060D01*
X89296Y199016D01*
X89434Y197971D01*
X89837Y196999D01*
X90478Y196163D01*
X91313Y195522D01*
X92286Y195119D01*
X93331Y194981D01*
X94375Y195119D01*
X95348Y195522D01*
X96184Y196163D01*
X96825Y196999D01*
X97228Y197971D01*
X97365Y199016D01*
X97228Y200060D01*
X96825Y201033D01*
X96184Y201869D01*
X95348Y202510D01*
X94375Y202913D01*
X93331Y203050D01*
D02*
G37*
G36*
X83331D02*
X82287Y202913D01*
X81313Y202510D01*
X80478Y201869D01*
X79837Y201033D01*
X79434Y200060D01*
X79296Y199016D01*
X79434Y197971D01*
X79837Y196999D01*
X80478Y196163D01*
X81313Y195522D01*
X82287Y195119D01*
X83331Y194981D01*
X84375Y195119D01*
X85348Y195522D01*
X86184Y196163D01*
X86825Y196999D01*
X87228Y197971D01*
X87365Y199016D01*
X87228Y200060D01*
X86825Y201033D01*
X86184Y201869D01*
X85348Y202510D01*
X84375Y202913D01*
X83331Y203050D01*
D02*
G37*
G36*
X73331D02*
X72286Y202913D01*
X71313Y202510D01*
X70478Y201869D01*
X69837Y201033D01*
X69434Y200060D01*
X69296Y199016D01*
X69434Y197971D01*
X69837Y196999D01*
X70478Y196163D01*
X71313Y195522D01*
X72286Y195119D01*
X73331Y194981D01*
X74375Y195119D01*
X75348Y195522D01*
X76183Y196163D01*
X76825Y196999D01*
X77228Y197971D01*
X77365Y199016D01*
X77228Y200060D01*
X76825Y201033D01*
X76183Y201869D01*
X75348Y202510D01*
X74375Y202913D01*
X73331Y203050D01*
D02*
G37*
G36*
X63331D02*
X62287Y202913D01*
X61313Y202510D01*
X60478Y201869D01*
X59837Y201033D01*
X59434Y200060D01*
X59296Y199016D01*
X59434Y197971D01*
X59837Y196999D01*
X60478Y196163D01*
X61313Y195522D01*
X62287Y195119D01*
X63331Y194981D01*
X64375Y195119D01*
X65348Y195522D01*
X66184Y196163D01*
X66825Y196999D01*
X67228Y197971D01*
X67365Y199016D01*
X67228Y200060D01*
X66825Y201033D01*
X66184Y201869D01*
X65348Y202510D01*
X64375Y202913D01*
X63331Y203050D01*
D02*
G37*
G36*
X43331D02*
X42287Y202913D01*
X41313Y202510D01*
X40478Y201869D01*
X39837Y201033D01*
X39434Y200060D01*
X39296Y199016D01*
X39434Y197971D01*
X39837Y196999D01*
X40478Y196163D01*
X41313Y195522D01*
X42287Y195119D01*
X43331Y194981D01*
X44375Y195119D01*
X45348Y195522D01*
X46183Y196163D01*
X46825Y196999D01*
X47228Y197971D01*
X47365Y199016D01*
X47228Y200060D01*
X46825Y201033D01*
X46183Y201869D01*
X45348Y202510D01*
X44375Y202913D01*
X43331Y203050D01*
D02*
G37*
G36*
X33331D02*
X32287Y202913D01*
X31313Y202510D01*
X30478Y201869D01*
X29837Y201033D01*
X29434Y200060D01*
X29296Y199016D01*
X29434Y197971D01*
X29837Y196999D01*
X30478Y196163D01*
X31313Y195522D01*
X32287Y195119D01*
X33331Y194981D01*
X34375Y195119D01*
X35348Y195522D01*
X36184Y196163D01*
X36825Y196999D01*
X37228Y197971D01*
X37365Y199016D01*
X37228Y200060D01*
X36825Y201033D01*
X36184Y201869D01*
X35348Y202510D01*
X34375Y202913D01*
X33331Y203050D01*
D02*
G37*
G36*
X23331D02*
X22287Y202913D01*
X21313Y202510D01*
X20478Y201869D01*
X19837Y201033D01*
X19434Y200060D01*
X19296Y199016D01*
X19434Y197971D01*
X19837Y196999D01*
X20478Y196163D01*
X21313Y195522D01*
X22287Y195119D01*
X23331Y194981D01*
X24375Y195119D01*
X25348Y195522D01*
X26184Y196163D01*
X26825Y196999D01*
X27228Y197971D01*
X27365Y199016D01*
X27228Y200060D01*
X26825Y201033D01*
X26184Y201869D01*
X25348Y202510D01*
X24375Y202913D01*
X23331Y203050D01*
D02*
G37*
G36*
X169331D02*
X168287Y202913D01*
X167313Y202510D01*
X166478Y201869D01*
X165837Y201033D01*
X165434Y200060D01*
X165296Y199016D01*
X165434Y197971D01*
X165837Y196999D01*
X166478Y196163D01*
X167313Y195522D01*
X167976Y195247D01*
X167857Y194647D01*
X160804D01*
X160685Y195247D01*
X161348Y195522D01*
X162183Y196163D01*
X162825Y196999D01*
X163228Y197971D01*
X163365Y199016D01*
X163228Y200060D01*
X162825Y201033D01*
X162183Y201869D01*
X161348Y202510D01*
X160375Y202913D01*
X159331Y203050D01*
X158286Y202913D01*
X157313Y202510D01*
X156478Y201869D01*
X155837Y201033D01*
X155434Y200060D01*
X155296Y199016D01*
X155434Y197971D01*
X155837Y196999D01*
X156478Y196163D01*
X157313Y195522D01*
X157976Y195247D01*
X157857Y194647D01*
X150804D01*
X150685Y195247D01*
X151348Y195522D01*
X152183Y196163D01*
X152825Y196999D01*
X153228Y197971D01*
X153365Y199016D01*
X153228Y200060D01*
X152825Y201033D01*
X152183Y201869D01*
X151348Y202510D01*
X150375Y202913D01*
X149331Y203050D01*
X148286Y202913D01*
X147313Y202510D01*
X146478Y201869D01*
X145837Y201033D01*
X145434Y200060D01*
X145296Y199016D01*
X145434Y197971D01*
X145837Y196999D01*
X146478Y196163D01*
X147313Y195522D01*
X147977Y195247D01*
X147857Y194647D01*
X140804D01*
X140685Y195247D01*
X141348Y195522D01*
X142183Y196163D01*
X142825Y196999D01*
X143228Y197971D01*
X143365Y199016D01*
X143228Y200060D01*
X142825Y201033D01*
X142183Y201869D01*
X141348Y202510D01*
X140375Y202913D01*
X139331Y203050D01*
X138286Y202913D01*
X137313Y202510D01*
X136478Y201869D01*
X135837Y201033D01*
X135434Y200060D01*
X135296Y199016D01*
X135434Y197971D01*
X135837Y196999D01*
X136478Y196163D01*
X137313Y195522D01*
X137977Y195247D01*
X137857Y194647D01*
X136006D01*
X133068Y197586D01*
X133228Y197971D01*
X133365Y199016D01*
X133228Y200060D01*
X132825Y201033D01*
X132184Y201869D01*
X131348Y202510D01*
X130375Y202913D01*
X129331Y203050D01*
X128287Y202913D01*
X127313Y202510D01*
X126478Y201869D01*
X125837Y201033D01*
X125434Y200060D01*
X125296Y199016D01*
X125434Y197971D01*
X125837Y196999D01*
X126478Y196163D01*
X127313Y195522D01*
X128287Y195119D01*
X129331Y194981D01*
X130375Y195119D01*
X130761Y195279D01*
X134177Y191862D01*
X134706Y191509D01*
X135331Y191384D01*
X174655D01*
X185351Y180688D01*
X185314Y180075D01*
X185228Y180018D01*
X184676Y179191D01*
X184482Y178216D01*
X184676Y177240D01*
X185228Y176413D01*
X186055Y175861D01*
X187031Y175667D01*
X188006Y175861D01*
X188833Y176413D01*
X189386Y177240D01*
X189580Y178216D01*
X189386Y179191D01*
X188833Y180018D01*
X188662Y180132D01*
Y181316D01*
X188538Y181940D01*
X188184Y182469D01*
X176484Y194169D01*
X175955Y194523D01*
X175331Y194647D01*
X170804D01*
X170685Y195247D01*
X171348Y195522D01*
X172184Y196163D01*
X172825Y196999D01*
X173228Y197971D01*
X173365Y199016D01*
X173228Y200060D01*
X172825Y201033D01*
X172184Y201869D01*
X171348Y202510D01*
X170375Y202913D01*
X169331Y203050D01*
D02*
G37*
G36*
X15748Y190010D02*
X14394Y189876D01*
X13093Y189482D01*
X11893Y188840D01*
X10842Y187977D01*
X9979Y186926D01*
X9337Y185726D01*
X8942Y184425D01*
X8809Y183071D01*
X8942Y181717D01*
X9337Y180415D01*
X9979Y179216D01*
X10842Y178164D01*
X11893Y177301D01*
X13093Y176660D01*
X14394Y176265D01*
X15748Y176132D01*
X17102Y176265D01*
X18403Y176660D01*
X19603Y177301D01*
X20655Y178164D01*
X21518Y179216D01*
X22159Y180415D01*
X22554Y181717D01*
X22687Y183071D01*
X22554Y184425D01*
X22159Y185726D01*
X21518Y186926D01*
X20655Y187977D01*
X19603Y188840D01*
X18403Y189482D01*
X17102Y189876D01*
X15748Y190010D01*
D02*
G37*
G36*
X201287Y182087D02*
Y175697D01*
X207677D01*
X207593Y176551D01*
X207198Y177852D01*
X206557Y179052D01*
X205694Y180103D01*
X204643Y180966D01*
X203443Y181608D01*
X202141Y182002D01*
X201287Y182087D01*
D02*
G37*
G36*
X200287Y182087D02*
X199434Y182002D01*
X198132Y181608D01*
X196932Y180966D01*
X195881Y180103D01*
X195018Y179052D01*
X194377Y177852D01*
X193982Y176551D01*
X193898Y175697D01*
X200287D01*
Y182087D01*
D02*
G37*
G36*
Y174697D02*
X193898D01*
X193982Y173843D01*
X194377Y172541D01*
X195018Y171342D01*
X195881Y170290D01*
X196932Y169427D01*
X198132Y168786D01*
X199434Y168391D01*
X200287Y168307D01*
Y174697D01*
D02*
G37*
G36*
X207677D02*
X201287D01*
Y168307D01*
X202141Y168391D01*
X203443Y168786D01*
X204643Y169427D01*
X205694Y170290D01*
X206557Y171342D01*
X207198Y172541D01*
X207593Y173843D01*
X207677Y174697D01*
D02*
G37*
G36*
X23931Y168707D02*
Y166758D01*
X25880D01*
X25786Y167233D01*
X25233Y168060D01*
X24406Y168612D01*
X23931Y168707D01*
D02*
G37*
G36*
X22931D02*
X22455Y168612D01*
X21628Y168060D01*
X21076Y167233D01*
X20981Y166758D01*
X22931D01*
Y168707D01*
D02*
G37*
G36*
X25880Y165758D02*
X23931D01*
Y163808D01*
X24406Y163902D01*
X25233Y164455D01*
X25786Y165282D01*
X25880Y165758D01*
D02*
G37*
G36*
X22931D02*
X20981D01*
X21076Y165282D01*
X21628Y164455D01*
X22455Y163902D01*
X22931Y163808D01*
Y165758D01*
D02*
G37*
G36*
X72131Y173565D02*
X71155Y173371D01*
X70328Y172818D01*
X69776Y171991D01*
X69582Y171016D01*
X69646Y170694D01*
X66149Y167197D01*
X65818Y166701D01*
X65701Y166116D01*
Y161206D01*
X65101Y160892D01*
X64231Y161065D01*
X63909Y161001D01*
X60312Y164597D01*
X59816Y164929D01*
X59231Y165045D01*
X46516D01*
X46333Y165318D01*
X45506Y165871D01*
X44531Y166065D01*
X43555Y165871D01*
X42728Y165318D01*
X42176Y164491D01*
X41982Y163516D01*
X42176Y162540D01*
X42728Y161713D01*
X43555Y161161D01*
X44531Y160967D01*
X45506Y161161D01*
X46333Y161713D01*
X46516Y161986D01*
X58597D01*
X59883Y160701D01*
X59881Y160696D01*
X59529Y160206D01*
X59081Y160295D01*
X42816D01*
X42633Y160568D01*
X41806Y161121D01*
X40831Y161315D01*
X39855Y161121D01*
X39028Y160568D01*
X38476Y159741D01*
X38282Y158766D01*
X38476Y157790D01*
X39028Y156963D01*
X39855Y156411D01*
X40150Y156352D01*
X40253Y156156D01*
X40352Y155700D01*
X39878Y154991D01*
X39684Y154016D01*
X39857Y153145D01*
X39542Y152545D01*
X36415D01*
X36233Y152818D01*
X35406Y153371D01*
X34431Y153565D01*
X33455Y153371D01*
X32628Y152818D01*
X32076Y151991D01*
X31882Y151016D01*
X32076Y150040D01*
X32628Y149213D01*
X33455Y148661D01*
X34431Y148467D01*
X35406Y148661D01*
X36233Y149213D01*
X36415Y149486D01*
X49397D01*
X54049Y144834D01*
X54545Y144503D01*
X55131Y144386D01*
X62146D01*
X62328Y144113D01*
X63155Y143561D01*
X64131Y143367D01*
X65106Y143561D01*
X65933Y144113D01*
X66486Y144940D01*
X66680Y145916D01*
X66486Y146891D01*
X65933Y147718D01*
X65106Y148271D01*
X64131Y148465D01*
X63155Y148271D01*
X62328Y147718D01*
X62146Y147445D01*
X60426D01*
X60106Y148045D01*
X60336Y148390D01*
X60530Y149365D01*
X60466Y149687D01*
X62412Y151634D01*
X62744Y152130D01*
X62860Y152715D01*
Y155758D01*
X63460Y156120D01*
X64231Y155967D01*
X65101Y156140D01*
X65701Y155825D01*
Y152901D01*
X65428Y152718D01*
X64876Y151891D01*
X64682Y150916D01*
X64876Y149940D01*
X65428Y149113D01*
X66255Y148561D01*
X67231Y148367D01*
X68206Y148561D01*
X69033Y149113D01*
X69231Y149409D01*
X69831D01*
X70028Y149113D01*
X70855Y148561D01*
X71831Y148367D01*
X72215Y148443D01*
X72725Y147933D01*
X72682Y147716D01*
X72876Y146740D01*
X73428Y145913D01*
X74255Y145361D01*
X75231Y145167D01*
X76206Y145361D01*
X77033Y145913D01*
X77586Y146740D01*
X77780Y147716D01*
X77773Y147749D01*
X78309Y148130D01*
X79131Y147967D01*
X80106Y148161D01*
X80933Y148713D01*
X81486Y149540D01*
X81680Y150516D01*
X81486Y151491D01*
X80933Y152318D01*
X80660Y152501D01*
Y158382D01*
X81459Y159181D01*
X81781Y159117D01*
X82756Y159311D01*
X83583Y159863D01*
X84136Y160690D01*
X84330Y161666D01*
X84136Y162641D01*
X83583Y163468D01*
X82756Y164021D01*
X81781Y164215D01*
X81372Y164134D01*
X80948Y164558D01*
X80980Y164716D01*
X80786Y165691D01*
X80233Y166518D01*
X79406Y167071D01*
X78431Y167265D01*
X78272Y167233D01*
X77848Y167657D01*
X77880Y167816D01*
X77686Y168791D01*
X77133Y169618D01*
X76306Y170171D01*
X75331Y170365D01*
X75048Y170308D01*
X74623Y170733D01*
X74680Y171016D01*
X74486Y171991D01*
X73933Y172818D01*
X73106Y173371D01*
X72131Y173565D01*
D02*
G37*
G36*
X106231Y160265D02*
Y158316D01*
X108180D01*
X108086Y158791D01*
X107533Y159618D01*
X106706Y160171D01*
X106231Y160265D01*
D02*
G37*
G36*
X105231D02*
X104755Y160171D01*
X103928Y159618D01*
X103376Y158791D01*
X103281Y158316D01*
X105231D01*
Y160265D01*
D02*
G37*
G36*
X108180Y157316D02*
X106231D01*
Y155366D01*
X106706Y155461D01*
X107533Y156013D01*
X108086Y156840D01*
X108180Y157316D01*
D02*
G37*
G36*
X105231D02*
X103281D01*
X103376Y156840D01*
X103928Y156013D01*
X104755Y155461D01*
X105231Y155366D01*
Y157316D01*
D02*
G37*
G36*
X163331Y156984D02*
Y153516D01*
X166799D01*
X166728Y154060D01*
X166325Y155033D01*
X165683Y155869D01*
X164848Y156510D01*
X163875Y156913D01*
X163331Y156984D01*
D02*
G37*
G36*
X162331Y156984D02*
X161786Y156913D01*
X160813Y156510D01*
X159978Y155869D01*
X159337Y155033D01*
X158934Y154060D01*
X158862Y153516D01*
X162331D01*
Y156984D01*
D02*
G37*
G36*
X184331Y153705D02*
Y151756D01*
X186280D01*
X186186Y152231D01*
X185633Y153058D01*
X184806Y153611D01*
X184331Y153705D01*
D02*
G37*
G36*
X183331D02*
X182855Y153611D01*
X182028Y153058D01*
X181476Y152231D01*
X181381Y151756D01*
X183331D01*
Y153705D01*
D02*
G37*
G36*
X86031Y151265D02*
Y149316D01*
X87980D01*
X87886Y149791D01*
X87333Y150618D01*
X86506Y151171D01*
X86031Y151265D01*
D02*
G37*
G36*
X85031D02*
X84555Y151171D01*
X83728Y150618D01*
X83176Y149791D01*
X83081Y149316D01*
X85031D01*
Y151265D01*
D02*
G37*
G36*
X166799Y152516D02*
X163331D01*
Y149047D01*
X163875Y149119D01*
X164848Y149522D01*
X165683Y150163D01*
X166325Y150998D01*
X166728Y151971D01*
X166799Y152516D01*
D02*
G37*
G36*
X162331D02*
X158862D01*
X158934Y151971D01*
X159337Y150998D01*
X159978Y150163D01*
X160813Y149522D01*
X161786Y149119D01*
X162331Y149047D01*
Y152516D01*
D02*
G37*
G36*
X186280Y150756D02*
X184331D01*
Y148806D01*
X184806Y148901D01*
X185633Y149453D01*
X186186Y150280D01*
X186280Y150756D01*
D02*
G37*
G36*
X183331D02*
X181381D01*
X181476Y150280D01*
X182028Y149453D01*
X182855Y148901D01*
X183331Y148806D01*
Y150756D01*
D02*
G37*
G36*
X87980Y148316D02*
X86031D01*
Y146366D01*
X86506Y146461D01*
X87333Y147013D01*
X87886Y147840D01*
X87980Y148316D01*
D02*
G37*
G36*
X85031D02*
X83081D01*
X83176Y147840D01*
X83728Y147013D01*
X84555Y146461D01*
X85031Y146366D01*
Y148316D01*
D02*
G37*
G36*
X123031Y147365D02*
Y145416D01*
X124980D01*
X124886Y145891D01*
X124333Y146718D01*
X123506Y147271D01*
X123031Y147365D01*
D02*
G37*
G36*
X122031D02*
X121555Y147271D01*
X120728Y146718D01*
X120176Y145891D01*
X120081Y145416D01*
X122031D01*
Y147365D01*
D02*
G37*
G36*
X208431Y148771D02*
Y144754D01*
X212447D01*
X212357Y145440D01*
X211899Y146546D01*
X211171Y147495D01*
X210222Y148223D01*
X209117Y148681D01*
X208431Y148771D01*
D02*
G37*
G36*
X207431D02*
X206745Y148681D01*
X205639Y148223D01*
X204690Y147495D01*
X203962Y146546D01*
X203504Y145440D01*
X203414Y144754D01*
X207431D01*
Y148771D01*
D02*
G37*
G36*
X32789Y145423D02*
Y143474D01*
X34738D01*
X34644Y143949D01*
X34091Y144776D01*
X33264Y145329D01*
X32789Y145423D01*
D02*
G37*
G36*
X31789D02*
X31313Y145329D01*
X30487Y144776D01*
X29934Y143949D01*
X29839Y143474D01*
X31789D01*
Y145423D01*
D02*
G37*
G36*
X124980Y144416D02*
X123031D01*
Y142466D01*
X123506Y142561D01*
X124333Y143113D01*
X124886Y143940D01*
X124980Y144416D01*
D02*
G37*
G36*
X122031D02*
X120081D01*
X120176Y143940D01*
X120728Y143113D01*
X121555Y142561D01*
X122031Y142466D01*
Y144416D01*
D02*
G37*
G36*
X91376Y143341D02*
Y141391D01*
X93325D01*
X93231Y141867D01*
X92678Y142694D01*
X91851Y143246D01*
X91376Y143341D01*
D02*
G37*
G36*
X90376D02*
X89900Y143246D01*
X89073Y142694D01*
X88521Y141867D01*
X88426Y141391D01*
X90376D01*
Y143341D01*
D02*
G37*
G36*
X197801Y144056D02*
Y140817D01*
X201039D01*
X200975Y141302D01*
X200595Y142219D01*
X199991Y143007D01*
X199203Y143612D01*
X198285Y143992D01*
X197801Y144056D01*
D02*
G37*
G36*
X196801Y144056D02*
X196316Y143992D01*
X195399Y143612D01*
X194611Y143007D01*
X194006Y142219D01*
X193626Y141302D01*
X193562Y140817D01*
X196801D01*
Y144056D01*
D02*
G37*
G36*
X34738Y142474D02*
X32789D01*
Y140524D01*
X33264Y140619D01*
X34091Y141172D01*
X34644Y141999D01*
X34738Y142474D01*
D02*
G37*
G36*
X31789D02*
X29839D01*
X29934Y141999D01*
X30487Y141172D01*
X31313Y140619D01*
X31789Y140524D01*
Y142474D01*
D02*
G37*
G36*
X212447Y143754D02*
X208431D01*
Y139738D01*
X209117Y139828D01*
X210222Y140286D01*
X211171Y141014D01*
X211899Y141963D01*
X212357Y143068D01*
X212447Y143754D01*
D02*
G37*
G36*
X207431D02*
X203414D01*
X203504Y143068D01*
X203962Y141963D01*
X204690Y141014D01*
X205639Y140286D01*
X206745Y139828D01*
X207431Y139738D01*
Y143754D01*
D02*
G37*
G36*
X146831Y147016D02*
X138831D01*
Y139016D01*
X146831D01*
Y147016D01*
D02*
G37*
G36*
X144731Y160245D02*
X129031D01*
X128445Y160129D01*
X127949Y159797D01*
X125253Y157101D01*
X124931Y157165D01*
X123955Y156971D01*
X123128Y156418D01*
X122576Y155591D01*
X122382Y154616D01*
X122576Y153640D01*
X123128Y152813D01*
X123955Y152261D01*
X124931Y152067D01*
X125906Y152261D01*
X126733Y152813D01*
X127232Y153560D01*
X127556Y153572D01*
X127857Y153497D01*
X127976Y152898D01*
X128528Y152071D01*
X129355Y151518D01*
X129401Y151509D01*
Y131601D01*
X129128Y131418D01*
X128576Y130591D01*
X128382Y129616D01*
X128576Y128640D01*
X129128Y127813D01*
X129955Y127261D01*
X130931Y127067D01*
X131906Y127261D01*
X132733Y127813D01*
X133286Y128640D01*
X133480Y129616D01*
X133286Y130591D01*
X132733Y131418D01*
X132460Y131601D01*
Y152560D01*
X132686Y152898D01*
X132880Y153873D01*
X132686Y154849D01*
X132133Y155675D01*
X131306Y156228D01*
X130331Y156422D01*
X129817Y156320D01*
X129501Y156869D01*
X129748Y157186D01*
X140879D01*
X140998Y156586D01*
X140813Y156510D01*
X139978Y155869D01*
X139337Y155033D01*
X138934Y154060D01*
X138796Y153016D01*
X138934Y151971D01*
X139337Y150998D01*
X139978Y150163D01*
X140813Y149522D01*
X141787Y149119D01*
X142831Y148981D01*
X143875Y149119D01*
X144848Y149522D01*
X145684Y150163D01*
X145801Y150316D01*
X146010Y150316D01*
X146433Y150154D01*
X146518Y149731D01*
X146849Y149234D01*
X149149Y146934D01*
X149645Y146603D01*
X149887Y146555D01*
X150036Y145913D01*
X149978Y145869D01*
X149337Y145033D01*
X148934Y144060D01*
X148796Y143016D01*
X148934Y141972D01*
X149337Y140998D01*
X149978Y140163D01*
X150813Y139522D01*
X151786Y139119D01*
X152831Y138981D01*
X153875Y139119D01*
X154848Y139522D01*
X155684Y140163D01*
X156325Y140998D01*
X156728Y141972D01*
X156865Y143016D01*
X156728Y144060D01*
X156325Y145033D01*
X155684Y145869D01*
X155619Y145918D01*
X155812Y146486D01*
X157197D01*
X159136Y144548D01*
X158934Y144060D01*
X158796Y143016D01*
X158934Y141972D01*
X159337Y140998D01*
X159978Y140163D01*
X160813Y139522D01*
X161786Y139119D01*
X162831Y138981D01*
X163875Y139119D01*
X164848Y139522D01*
X165683Y140163D01*
X166325Y140998D01*
X166728Y141972D01*
X166865Y143016D01*
X166728Y144060D01*
X166325Y145033D01*
X165683Y145869D01*
X164848Y146510D01*
X163875Y146913D01*
X162831Y147050D01*
X161786Y146913D01*
X161299Y146711D01*
X158912Y149097D01*
X158416Y149429D01*
X157831Y149545D01*
X155812D01*
X155619Y150113D01*
X155684Y150163D01*
X156325Y150998D01*
X156728Y151971D01*
X156865Y153016D01*
X156728Y154060D01*
X156325Y155033D01*
X155684Y155869D01*
X154848Y156510D01*
X153875Y156913D01*
X152831Y157050D01*
X151786Y156913D01*
X150813Y156510D01*
X149978Y155869D01*
X149355Y156043D01*
X149344Y156101D01*
X149012Y156597D01*
X145812Y159797D01*
X145316Y160129D01*
X144731Y160245D01*
D02*
G37*
G36*
X93325Y140391D02*
X91376D01*
Y138442D01*
X91851Y138536D01*
X92678Y139089D01*
X93231Y139916D01*
X93325Y140391D01*
D02*
G37*
G36*
X90376D02*
X88426D01*
X88521Y139916D01*
X89073Y139089D01*
X89900Y138536D01*
X90376Y138442D01*
Y140391D01*
D02*
G37*
G36*
X173231Y139065D02*
Y137116D01*
X175180D01*
X175086Y137591D01*
X174533Y138418D01*
X173706Y138971D01*
X173231Y139065D01*
D02*
G37*
G36*
X172231D02*
X171755Y138971D01*
X170928Y138418D01*
X170376Y137591D01*
X170281Y137116D01*
X172231D01*
Y139065D01*
D02*
G37*
G36*
X196801Y139817D02*
X193562D01*
X193626Y139333D01*
X194006Y138415D01*
X194611Y137627D01*
X195399Y137023D01*
X196316Y136643D01*
X196801Y136579D01*
Y139817D01*
D02*
G37*
G36*
X201039D02*
X197801D01*
Y136579D01*
X198285Y136643D01*
X199203Y137023D01*
X199991Y137627D01*
X200595Y138415D01*
X200975Y139333D01*
X201039Y139817D01*
D02*
G37*
G36*
X175180Y136116D02*
X173231D01*
Y134166D01*
X173706Y134261D01*
X174533Y134813D01*
X175086Y135640D01*
X175180Y136116D01*
D02*
G37*
G36*
X172231D02*
X170281D01*
X170376Y135640D01*
X170928Y134813D01*
X171755Y134261D01*
X172231Y134166D01*
Y136116D01*
D02*
G37*
G36*
X103004Y134513D02*
Y132563D01*
X104953D01*
X104859Y133039D01*
X104306Y133866D01*
X103479Y134418D01*
X103004Y134513D01*
D02*
G37*
G36*
X102004D02*
X101528Y134418D01*
X100701Y133866D01*
X100149Y133039D01*
X100054Y132563D01*
X102004D01*
Y134513D01*
D02*
G37*
G36*
X14831Y133465D02*
X13855Y133271D01*
X13028Y132718D01*
X12846Y132445D01*
X10149D01*
X10033Y132618D01*
X9206Y133171D01*
X8231Y133365D01*
X7255Y133171D01*
X6428Y132618D01*
X5876Y131791D01*
X5682Y130816D01*
X5876Y129840D01*
X6428Y129013D01*
X7255Y128461D01*
X8231Y128267D01*
X9206Y128461D01*
X10033Y129013D01*
X10282Y129386D01*
X12846D01*
X13028Y129113D01*
X13855Y128561D01*
X14831Y128367D01*
X15806Y128561D01*
X16633Y129113D01*
X17186Y129940D01*
X17380Y130916D01*
X17186Y131891D01*
X16633Y132718D01*
X15806Y133271D01*
X14831Y133465D01*
D02*
G37*
G36*
X64331Y133265D02*
X63355Y133071D01*
X62528Y132518D01*
X62346Y132245D01*
X36116D01*
X35933Y132518D01*
X35106Y133071D01*
X34131Y133265D01*
X33155Y133071D01*
X32328Y132518D01*
X31776Y131691D01*
X31582Y130716D01*
X31776Y129740D01*
X32328Y128913D01*
X33155Y128361D01*
X34131Y128167D01*
X35106Y128361D01*
X35933Y128913D01*
X36116Y129186D01*
X62346D01*
X62528Y128913D01*
X63355Y128361D01*
X64331Y128167D01*
X65306Y128361D01*
X66133Y128913D01*
X66686Y129740D01*
X66880Y130716D01*
X66686Y131691D01*
X66133Y132518D01*
X65306Y133071D01*
X64331Y133265D01*
D02*
G37*
G36*
X104953Y131563D02*
X103004D01*
Y129614D01*
X103479Y129708D01*
X104306Y130261D01*
X104859Y131088D01*
X104953Y131563D01*
D02*
G37*
G36*
X102004D02*
X100054D01*
X100149Y131088D01*
X100701Y130261D01*
X101528Y129708D01*
X102004Y129614D01*
Y131563D01*
D02*
G37*
G36*
X197801Y124371D02*
Y121132D01*
X201039D01*
X200975Y121617D01*
X200595Y122534D01*
X199991Y123322D01*
X199203Y123927D01*
X198285Y124307D01*
X197801Y124371D01*
D02*
G37*
G36*
X196801Y124371D02*
X196316Y124307D01*
X195399Y123927D01*
X194611Y123322D01*
X194006Y122534D01*
X193626Y121617D01*
X193562Y121132D01*
X196801D01*
Y124371D01*
D02*
G37*
G36*
X77331Y121465D02*
Y119516D01*
X79280D01*
X79186Y119991D01*
X78633Y120818D01*
X77806Y121371D01*
X77331Y121465D01*
D02*
G37*
G36*
X76331D02*
X75855Y121371D01*
X75028Y120818D01*
X74476Y119991D01*
X74381Y119516D01*
X76331D01*
Y121465D01*
D02*
G37*
G36*
X208431Y121212D02*
Y117195D01*
X212447D01*
X212357Y117881D01*
X211899Y118986D01*
X211171Y119936D01*
X210222Y120664D01*
X209117Y121122D01*
X208431Y121212D01*
D02*
G37*
G36*
X207431D02*
X206745Y121122D01*
X205639Y120664D01*
X204690Y119936D01*
X203962Y118986D01*
X203504Y117881D01*
X203414Y117195D01*
X207431D01*
Y121212D01*
D02*
G37*
G36*
X196801Y120132D02*
X193562D01*
X193626Y119648D01*
X194006Y118730D01*
X194611Y117942D01*
X195399Y117338D01*
X196316Y116958D01*
X196801Y116894D01*
Y120132D01*
D02*
G37*
G36*
X201039D02*
X197801D01*
Y116894D01*
X198285Y116958D01*
X199203Y117338D01*
X199991Y117942D01*
X200595Y118730D01*
X200975Y119648D01*
X201039Y120132D01*
D02*
G37*
G36*
X79280Y118516D02*
X77331D01*
Y116566D01*
X77806Y116661D01*
X78633Y117213D01*
X79186Y118040D01*
X79280Y118516D01*
D02*
G37*
G36*
X76331D02*
X74381D01*
X74476Y118040D01*
X75028Y117213D01*
X75855Y116661D01*
X76331Y116566D01*
Y118516D01*
D02*
G37*
G36*
X212447Y116195D02*
X208431D01*
Y112179D01*
X209117Y112269D01*
X210222Y112727D01*
X211171Y113455D01*
X211899Y114404D01*
X212357Y115509D01*
X212447Y116195D01*
D02*
G37*
G36*
X207431D02*
X203414D01*
X203504Y115509D01*
X203962Y114404D01*
X204690Y113455D01*
X205639Y112727D01*
X206745Y112269D01*
X207431Y112179D01*
Y116195D01*
D02*
G37*
G36*
X184331Y109225D02*
Y107276D01*
X186280D01*
X186186Y107751D01*
X185633Y108578D01*
X184806Y109131D01*
X184331Y109225D01*
D02*
G37*
G36*
X183331D02*
X182855Y109131D01*
X182028Y108578D01*
X181476Y107751D01*
X181381Y107276D01*
X183331D01*
Y109225D01*
D02*
G37*
G36*
X186280Y106276D02*
X184331D01*
Y104326D01*
X184806Y104421D01*
X185633Y104973D01*
X186186Y105800D01*
X186280Y106276D01*
D02*
G37*
G36*
X183331D02*
X181381D01*
X181476Y105800D01*
X182028Y104973D01*
X182855Y104421D01*
X183331Y104326D01*
Y106276D01*
D02*
G37*
G36*
X30431Y105565D02*
Y103616D01*
X32380D01*
X32286Y104091D01*
X31733Y104918D01*
X30906Y105471D01*
X30431Y105565D01*
D02*
G37*
G36*
X29431D02*
X28955Y105471D01*
X28128Y104918D01*
X27576Y104091D01*
X27481Y103616D01*
X29431D01*
Y105565D01*
D02*
G37*
G36*
X32380Y102616D02*
X30431D01*
Y100666D01*
X30906Y100761D01*
X31733Y101313D01*
X32286Y102140D01*
X32380Y102616D01*
D02*
G37*
G36*
X29431D02*
X27481D01*
X27576Y102140D01*
X28128Y101313D01*
X28955Y100761D01*
X29431Y100666D01*
Y102616D01*
D02*
G37*
G36*
X148331Y101465D02*
Y99516D01*
X150280D01*
X150186Y99991D01*
X149633Y100818D01*
X148806Y101371D01*
X148331Y101465D01*
D02*
G37*
G36*
X147331D02*
X146855Y101371D01*
X146028Y100818D01*
X145476Y99991D01*
X145381Y99516D01*
X147331D01*
Y101465D01*
D02*
G37*
G36*
X137531Y102565D02*
X136555Y102371D01*
X136083Y102055D01*
X130131D01*
X129350Y101900D01*
X128689Y101458D01*
X128689Y101458D01*
X126889Y99658D01*
X126447Y98996D01*
X126292Y98216D01*
Y76964D01*
X125976Y76491D01*
X125782Y75516D01*
X125976Y74540D01*
X126528Y73713D01*
X127355Y73161D01*
X128331Y72967D01*
X129306Y73161D01*
X130133Y73713D01*
X130686Y74540D01*
X130880Y75516D01*
X130686Y76491D01*
X130370Y76964D01*
Y97371D01*
X130975Y97977D01*
X136083D01*
X136555Y97661D01*
X137531Y97467D01*
X138506Y97661D01*
X139333Y98213D01*
X139886Y99040D01*
X140080Y100016D01*
X139886Y100991D01*
X139333Y101818D01*
X138506Y102371D01*
X137531Y102565D01*
D02*
G37*
G36*
X150280Y98516D02*
X148331D01*
Y96566D01*
X148806Y96661D01*
X149633Y97213D01*
X150186Y98040D01*
X150280Y98516D01*
D02*
G37*
G36*
X147331D02*
X145381D01*
X145476Y98040D01*
X146028Y97213D01*
X146855Y96661D01*
X147331Y96566D01*
Y98516D01*
D02*
G37*
G36*
X30731Y85465D02*
Y83516D01*
X32680D01*
X32586Y83991D01*
X32033Y84818D01*
X31206Y85371D01*
X30731Y85465D01*
D02*
G37*
G36*
X29731D02*
X29255Y85371D01*
X28428Y84818D01*
X27876Y83991D01*
X27781Y83516D01*
X29731D01*
Y85465D01*
D02*
G37*
G36*
X159831Y113065D02*
X158855Y112871D01*
X158028Y112318D01*
X157476Y111491D01*
X157282Y110516D01*
X157476Y109540D01*
X158028Y108713D01*
X158199Y108599D01*
Y100516D01*
X158324Y99892D01*
X158677Y99362D01*
X173322Y84718D01*
X173282Y84516D01*
X173476Y83540D01*
X174028Y82713D01*
X174855Y82161D01*
X175831Y81967D01*
X176806Y82161D01*
X177633Y82713D01*
X178186Y83540D01*
X178380Y84516D01*
X178186Y85491D01*
X177633Y86318D01*
X176806Y86871D01*
X175831Y87065D01*
X175629Y87025D01*
X161462Y101191D01*
Y108599D01*
X161633Y108713D01*
X162186Y109540D01*
X162380Y110516D01*
X162186Y111491D01*
X161633Y112318D01*
X160806Y112871D01*
X159831Y113065D01*
D02*
G37*
G36*
X32680Y82516D02*
X30731D01*
Y80566D01*
X31206Y80661D01*
X32033Y81213D01*
X32586Y82040D01*
X32680Y82516D01*
D02*
G37*
G36*
X29731D02*
X27781D01*
X27876Y82040D01*
X28428Y81213D01*
X29255Y80661D01*
X29731Y80566D01*
Y82516D01*
D02*
G37*
G36*
X205131Y81665D02*
Y79716D01*
X207080D01*
X206986Y80191D01*
X206433Y81018D01*
X205606Y81571D01*
X205131Y81665D01*
D02*
G37*
G36*
X204131D02*
X203655Y81571D01*
X202828Y81018D01*
X202276Y80191D01*
X202181Y79716D01*
X204131D01*
Y81665D01*
D02*
G37*
G36*
X152331Y78965D02*
Y77016D01*
X154280D01*
X154186Y77491D01*
X153633Y78318D01*
X152806Y78871D01*
X152331Y78965D01*
D02*
G37*
G36*
X151331D02*
X150855Y78871D01*
X150028Y78318D01*
X149476Y77491D01*
X149381Y77016D01*
X151331D01*
Y78965D01*
D02*
G37*
G36*
X207080Y78716D02*
X205131D01*
Y76766D01*
X205606Y76861D01*
X206433Y77413D01*
X206986Y78240D01*
X207080Y78716D01*
D02*
G37*
G36*
X204131D02*
X202181D01*
X202276Y78240D01*
X202828Y77413D01*
X203655Y76861D01*
X204131Y76766D01*
Y78716D01*
D02*
G37*
G36*
X154280Y76016D02*
X152331D01*
Y74066D01*
X152806Y74161D01*
X153633Y74713D01*
X154186Y75540D01*
X154280Y76016D01*
D02*
G37*
G36*
X151331D02*
X149381D01*
X149476Y75540D01*
X150028Y74713D01*
X150855Y74161D01*
X151331Y74066D01*
Y76016D01*
D02*
G37*
G36*
X70831Y69353D02*
Y67403D01*
X72780D01*
X72686Y67879D01*
X72133Y68706D01*
X71306Y69258D01*
X70831Y69353D01*
D02*
G37*
G36*
X69831D02*
X69355Y69258D01*
X68528Y68706D01*
X67976Y67879D01*
X67881Y67403D01*
X69831D01*
Y69353D01*
D02*
G37*
G36*
X18264Y66898D02*
Y64949D01*
X20213D01*
X20119Y65424D01*
X19566Y66251D01*
X18739Y66804D01*
X18264Y66898D01*
D02*
G37*
G36*
X17264D02*
X16788Y66804D01*
X15961Y66251D01*
X15409Y65424D01*
X15314Y64949D01*
X17264D01*
Y66898D01*
D02*
G37*
G36*
X72780Y66403D02*
X70831D01*
Y64454D01*
X71306Y64548D01*
X72133Y65101D01*
X72686Y65928D01*
X72780Y66403D01*
D02*
G37*
G36*
X69831D02*
X67881D01*
X67976Y65928D01*
X68528Y65101D01*
X69355Y64548D01*
X69831Y64454D01*
Y66403D01*
D02*
G37*
G36*
X175731Y64965D02*
Y63016D01*
X177680D01*
X177586Y63491D01*
X177033Y64318D01*
X176206Y64871D01*
X175731Y64965D01*
D02*
G37*
G36*
X174731D02*
X174255Y64871D01*
X173428Y64318D01*
X172876Y63491D01*
X172781Y63016D01*
X174731D01*
Y64965D01*
D02*
G37*
G36*
X89131Y63965D02*
Y62016D01*
X91080D01*
X90986Y62491D01*
X90433Y63318D01*
X89606Y63871D01*
X89131Y63965D01*
D02*
G37*
G36*
X88131D02*
X87655Y63871D01*
X86828Y63318D01*
X86276Y62491D01*
X86181Y62016D01*
X88131D01*
Y63965D01*
D02*
G37*
G36*
X20213Y63949D02*
X18264D01*
Y61999D01*
X18739Y62094D01*
X19566Y62646D01*
X20119Y63473D01*
X20213Y63949D01*
D02*
G37*
G36*
X17264D02*
X15314D01*
X15409Y63473D01*
X15961Y62646D01*
X16788Y62094D01*
X17264Y61999D01*
Y63949D01*
D02*
G37*
G36*
X177680Y62016D02*
X175731D01*
Y60066D01*
X176206Y60161D01*
X177033Y60713D01*
X177586Y61540D01*
X177680Y62016D01*
D02*
G37*
G36*
X174731D02*
X172781D01*
X172876Y61540D01*
X173428Y60713D01*
X174255Y60161D01*
X174731Y60066D01*
Y62016D01*
D02*
G37*
G36*
X91080Y61016D02*
X89131D01*
Y59066D01*
X89606Y59161D01*
X90433Y59713D01*
X90986Y60540D01*
X91080Y61016D01*
D02*
G37*
G36*
X88131D02*
X86181D01*
X86276Y60540D01*
X86828Y59713D01*
X87655Y59161D01*
X88131Y59066D01*
Y61016D01*
D02*
G37*
G36*
X118331Y56465D02*
Y54516D01*
X120280D01*
X120186Y54991D01*
X119633Y55818D01*
X118806Y56371D01*
X118331Y56465D01*
D02*
G37*
G36*
X117331D02*
X116855Y56371D01*
X116028Y55818D01*
X115476Y54991D01*
X115381Y54516D01*
X117331D01*
Y56465D01*
D02*
G37*
G36*
X61831Y60565D02*
X60855Y60371D01*
X60028Y59818D01*
X59476Y58991D01*
X59282Y58016D01*
X59476Y57040D01*
X60028Y56213D01*
X60855Y55661D01*
X61831Y55467D01*
X62806Y55661D01*
X63633Y56213D01*
X63815Y56486D01*
X66397D01*
X69349Y53534D01*
X69845Y53203D01*
X70431Y53086D01*
X81446D01*
X81628Y52813D01*
X82455Y52261D01*
X83431Y52067D01*
X84406Y52261D01*
X85233Y52813D01*
X85786Y53640D01*
X85980Y54616D01*
X85786Y55591D01*
X85233Y56418D01*
X84406Y56971D01*
X83431Y57165D01*
X82455Y56971D01*
X81628Y56418D01*
X81446Y56145D01*
X71064D01*
X68112Y59097D01*
X67616Y59429D01*
X67031Y59545D01*
X63815D01*
X63633Y59818D01*
X62806Y60371D01*
X61831Y60565D01*
D02*
G37*
G36*
X120280Y53516D02*
X118331D01*
Y51566D01*
X118806Y51661D01*
X119633Y52213D01*
X120186Y53040D01*
X120280Y53516D01*
D02*
G37*
G36*
X117331D02*
X115381D01*
X115476Y53040D01*
X116028Y52213D01*
X116855Y51661D01*
X117331Y51566D01*
Y53516D01*
D02*
G37*
G36*
X67131Y50460D02*
Y48510D01*
X69080D01*
X68986Y48986D01*
X68433Y49813D01*
X67606Y50365D01*
X67131Y50460D01*
D02*
G37*
G36*
X66131D02*
X65655Y50365D01*
X64828Y49813D01*
X64276Y48986D01*
X64181Y48510D01*
X66131D01*
Y50460D01*
D02*
G37*
G36*
X128831Y48465D02*
Y46516D01*
X130780D01*
X130686Y46991D01*
X130133Y47818D01*
X129306Y48371D01*
X128831Y48465D01*
D02*
G37*
G36*
X127831D02*
X127355Y48371D01*
X126528Y47818D01*
X125976Y46991D01*
X125881Y46516D01*
X127831D01*
Y48465D01*
D02*
G37*
G36*
X69080Y47510D02*
X67131D01*
Y45561D01*
X67606Y45655D01*
X68433Y46208D01*
X68986Y47035D01*
X69080Y47510D01*
D02*
G37*
G36*
X66131D02*
X64181D01*
X64276Y47035D01*
X64828Y46208D01*
X65655Y45655D01*
X66131Y45561D01*
Y47510D01*
D02*
G37*
G36*
X130780Y45516D02*
X128831D01*
Y43566D01*
X129306Y43661D01*
X130133Y44213D01*
X130686Y45040D01*
X130780Y45516D01*
D02*
G37*
G36*
X127831D02*
X125881D01*
X125976Y45040D01*
X126528Y44213D01*
X127355Y43661D01*
X127831Y43566D01*
Y45516D01*
D02*
G37*
G36*
X85718Y44083D02*
Y42134D01*
X87668D01*
X87573Y42609D01*
X87020Y43436D01*
X86194Y43989D01*
X85718Y44083D01*
D02*
G37*
G36*
X84718D02*
X84243Y43989D01*
X83416Y43436D01*
X82863Y42609D01*
X82769Y42134D01*
X84718D01*
Y44083D01*
D02*
G37*
G36*
X47646Y43887D02*
Y41937D01*
X49595D01*
X49501Y42412D01*
X48948Y43239D01*
X48121Y43792D01*
X47646Y43887D01*
D02*
G37*
G36*
X46646D02*
X46170Y43792D01*
X45343Y43239D01*
X44791Y42412D01*
X44696Y41937D01*
X46646D01*
Y43887D01*
D02*
G37*
G36*
X87668Y41134D02*
X85718D01*
Y39184D01*
X86194Y39279D01*
X87020Y39832D01*
X87573Y40658D01*
X87668Y41134D01*
D02*
G37*
G36*
X84718D02*
X82769D01*
X82863Y40658D01*
X83416Y39832D01*
X84243Y39279D01*
X84718Y39184D01*
Y41134D01*
D02*
G37*
G36*
X49595Y40937D02*
X47646D01*
Y38987D01*
X48121Y39082D01*
X48948Y39635D01*
X49501Y40462D01*
X49595Y40937D01*
D02*
G37*
G36*
X46646D02*
X44696D01*
X44791Y40462D01*
X45343Y39635D01*
X46170Y39082D01*
X46646Y38987D01*
Y40937D01*
D02*
G37*
G36*
X162831Y33665D02*
Y31716D01*
X164780D01*
X164686Y32191D01*
X164133Y33018D01*
X163306Y33571D01*
X162831Y33665D01*
D02*
G37*
G36*
X161831D02*
X161355Y33571D01*
X160528Y33018D01*
X159976Y32191D01*
X159881Y31716D01*
X161831D01*
Y33665D01*
D02*
G37*
G36*
X143931Y32465D02*
Y30516D01*
X145880D01*
X145786Y30991D01*
X145233Y31818D01*
X144406Y32371D01*
X143931Y32465D01*
D02*
G37*
G36*
X142931D02*
X142455Y32371D01*
X141628Y31818D01*
X141076Y30991D01*
X140981Y30516D01*
X142931D01*
Y32465D01*
D02*
G37*
G36*
X164780Y30716D02*
X162831D01*
Y28766D01*
X163306Y28861D01*
X164133Y29413D01*
X164686Y30240D01*
X164780Y30716D01*
D02*
G37*
G36*
X161831D02*
X159881D01*
X159976Y30240D01*
X160528Y29413D01*
X161355Y28861D01*
X161831Y28766D01*
Y30716D01*
D02*
G37*
G36*
X122231Y39765D02*
X121255Y39571D01*
X120428Y39018D01*
X119876Y38191D01*
X119682Y37216D01*
X119876Y36240D01*
X120428Y35413D01*
X120155Y35013D01*
X120152Y35011D01*
X119600Y34184D01*
X119406Y33209D01*
X119600Y32233D01*
X120081Y31513D01*
X119986Y30851D01*
X119910Y30799D01*
X119357Y29972D01*
X119163Y28997D01*
X119357Y28022D01*
X119910Y27195D01*
X120161Y27027D01*
Y26427D01*
X120088Y26378D01*
X119863Y26041D01*
X119263D01*
X119060Y26345D01*
X118233Y26898D01*
X117258Y27092D01*
X116282Y26898D01*
X115455Y26345D01*
X114903Y25518D01*
X114709Y24543D01*
X114903Y23567D01*
X115455Y22740D01*
X115733Y22555D01*
Y21955D01*
X115528Y21818D01*
X114976Y20991D01*
X114782Y20016D01*
X114976Y19040D01*
X115528Y18213D01*
X116355Y17661D01*
X117331Y17467D01*
X117653Y17531D01*
X120649Y14534D01*
X121145Y14203D01*
X121731Y14086D01*
X142097D01*
X145636Y10548D01*
X145434Y10060D01*
X145296Y9016D01*
X145434Y7971D01*
X145837Y6999D01*
X146478Y6163D01*
X147313Y5522D01*
X148286Y5119D01*
X149331Y4981D01*
X150375Y5119D01*
X151348Y5522D01*
X152183Y6163D01*
X152825Y6999D01*
X153228Y7971D01*
X153365Y9016D01*
X153228Y10060D01*
X152825Y11033D01*
X152183Y11869D01*
X151348Y12510D01*
X150375Y12913D01*
X149331Y13050D01*
X148286Y12913D01*
X147799Y12711D01*
X144977Y15532D01*
X145207Y16086D01*
X150097D01*
X155636Y10548D01*
X155434Y10060D01*
X155296Y9016D01*
X155434Y7971D01*
X155837Y6999D01*
X156478Y6163D01*
X157313Y5522D01*
X158286Y5119D01*
X159331Y4981D01*
X160375Y5119D01*
X161348Y5522D01*
X162183Y6163D01*
X162825Y6999D01*
X163228Y7971D01*
X163365Y9016D01*
X163228Y10060D01*
X162825Y11033D01*
X162183Y11869D01*
X161348Y12510D01*
X160375Y12913D01*
X159331Y13050D01*
X158286Y12913D01*
X157799Y12711D01*
X152877Y17632D01*
X153107Y18186D01*
X157997D01*
X165636Y10548D01*
X165434Y10060D01*
X165296Y9016D01*
X165434Y7971D01*
X165837Y6999D01*
X166478Y6163D01*
X167313Y5522D01*
X168287Y5119D01*
X169331Y4981D01*
X170375Y5119D01*
X171348Y5522D01*
X172184Y6163D01*
X172825Y6999D01*
X173228Y7971D01*
X173365Y9016D01*
X173228Y10060D01*
X172825Y11033D01*
X172184Y11869D01*
X171348Y12510D01*
X170375Y12913D01*
X169331Y13050D01*
X168287Y12913D01*
X167799Y12711D01*
X160877Y19632D01*
X161107Y20186D01*
X165997D01*
X175636Y10548D01*
X175434Y10060D01*
X175296Y9016D01*
X175434Y7971D01*
X175837Y6999D01*
X176478Y6163D01*
X177313Y5522D01*
X178287Y5119D01*
X179331Y4981D01*
X180375Y5119D01*
X181348Y5522D01*
X182184Y6163D01*
X182825Y6999D01*
X183228Y7971D01*
X183365Y9016D01*
X183228Y10060D01*
X182825Y11033D01*
X182184Y11869D01*
X181348Y12510D01*
X180375Y12913D01*
X179331Y13050D01*
X178287Y12913D01*
X177799Y12711D01*
X168777Y21732D01*
X169007Y22286D01*
X173897D01*
X185636Y10548D01*
X185434Y10060D01*
X185296Y9016D01*
X185434Y7971D01*
X185837Y6999D01*
X186478Y6163D01*
X187313Y5522D01*
X188286Y5119D01*
X189331Y4981D01*
X190375Y5119D01*
X191348Y5522D01*
X192183Y6163D01*
X192825Y6999D01*
X193228Y7971D01*
X193365Y9016D01*
X193228Y10060D01*
X192825Y11033D01*
X192183Y11869D01*
X191348Y12510D01*
X190375Y12913D01*
X189331Y13050D01*
X188286Y12913D01*
X187799Y12711D01*
X176677Y23832D01*
X176907Y24386D01*
X181797D01*
X195636Y10548D01*
X195434Y10060D01*
X195296Y9016D01*
X195434Y7971D01*
X195837Y6999D01*
X196478Y6163D01*
X197313Y5522D01*
X198286Y5119D01*
X199331Y4981D01*
X200375Y5119D01*
X201348Y5522D01*
X202184Y6163D01*
X202825Y6999D01*
X203228Y7971D01*
X203365Y9016D01*
X203228Y10060D01*
X202825Y11033D01*
X202184Y11869D01*
X201348Y12510D01*
X200375Y12913D01*
X199331Y13050D01*
X198286Y12913D01*
X197799Y12711D01*
X183512Y26997D01*
X183016Y27329D01*
X182431Y27445D01*
X145163D01*
X144981Y28045D01*
X145233Y28213D01*
X145786Y29040D01*
X145880Y29516D01*
X140981D01*
X141076Y29040D01*
X141628Y28213D01*
X141880Y28045D01*
X141698Y27445D01*
X134164D01*
X124716Y36894D01*
X124780Y37216D01*
X124586Y38191D01*
X124033Y39018D01*
X123206Y39571D01*
X122231Y39765D01*
D02*
G37*
G36*
X16248Y22638D02*
Y16248D01*
X22638D01*
X22554Y17102D01*
X22159Y18403D01*
X21518Y19603D01*
X20655Y20655D01*
X19603Y21518D01*
X18403Y22159D01*
X17102Y22554D01*
X16248Y22638D01*
D02*
G37*
G36*
X15248D02*
X14394Y22554D01*
X13093Y22159D01*
X11893Y21518D01*
X10842Y20655D01*
X9979Y19603D01*
X9337Y18403D01*
X8942Y17102D01*
X8858Y16248D01*
X15248D01*
Y22638D01*
D02*
G37*
G36*
X119831Y12984D02*
Y9516D01*
X123299D01*
X123228Y10060D01*
X122825Y11033D01*
X122184Y11869D01*
X121348Y12510D01*
X120375Y12913D01*
X119831Y12984D01*
D02*
G37*
G36*
X118831D02*
X118287Y12913D01*
X117313Y12510D01*
X116478Y11869D01*
X115837Y11033D01*
X115434Y10060D01*
X115362Y9516D01*
X118831D01*
Y12984D01*
D02*
G37*
G36*
X109831D02*
Y9516D01*
X113299D01*
X113228Y10060D01*
X112825Y11033D01*
X112183Y11869D01*
X111348Y12510D01*
X110375Y12913D01*
X109831Y12984D01*
D02*
G37*
G36*
X108831D02*
X108286Y12913D01*
X107313Y12510D01*
X106478Y11869D01*
X105837Y11033D01*
X105434Y10060D01*
X105362Y9516D01*
X108831D01*
Y12984D01*
D02*
G37*
G36*
X22638Y15248D02*
X16248D01*
Y8858D01*
X17102Y8942D01*
X18403Y9337D01*
X19603Y9979D01*
X20655Y10842D01*
X21518Y11893D01*
X22159Y13093D01*
X22554Y14394D01*
X22638Y15248D01*
D02*
G37*
G36*
X15248D02*
X8858D01*
X8942Y14394D01*
X9337Y13093D01*
X9979Y11893D01*
X10842Y10842D01*
X11893Y9979D01*
X13093Y9337D01*
X14394Y8942D01*
X15248Y8858D01*
Y15248D01*
D02*
G37*
G36*
X123299Y8516D02*
X119831D01*
Y5047D01*
X120375Y5119D01*
X121348Y5522D01*
X122184Y6163D01*
X122825Y6999D01*
X123228Y7971D01*
X123299Y8516D01*
D02*
G37*
G36*
X118831D02*
X115362D01*
X115434Y7971D01*
X115837Y6999D01*
X116478Y6163D01*
X117313Y5522D01*
X118287Y5119D01*
X118831Y5047D01*
Y8516D01*
D02*
G37*
G36*
X113299D02*
X109831D01*
Y5047D01*
X110375Y5119D01*
X111348Y5522D01*
X112183Y6163D01*
X112825Y6999D01*
X113228Y7971D01*
X113299Y8516D01*
D02*
G37*
G36*
X108831D02*
X105362D01*
X105434Y7971D01*
X105837Y6999D01*
X106478Y6163D01*
X107313Y5522D01*
X108286Y5119D01*
X108831Y5047D01*
Y8516D01*
D02*
G37*
G36*
X129331Y13050D02*
X128287Y12913D01*
X127313Y12510D01*
X126478Y11869D01*
X125837Y11033D01*
X125434Y10060D01*
X125296Y9016D01*
X125434Y7971D01*
X125837Y6999D01*
X126478Y6163D01*
X127313Y5522D01*
X128287Y5119D01*
X129331Y4981D01*
X130375Y5119D01*
X131348Y5522D01*
X132184Y6163D01*
X132825Y6999D01*
X133228Y7971D01*
X133365Y9016D01*
X133228Y10060D01*
X132825Y11033D01*
X132184Y11869D01*
X131348Y12510D01*
X130375Y12913D01*
X129331Y13050D01*
D02*
G37*
G36*
X99331D02*
X98286Y12913D01*
X97313Y12510D01*
X96478Y11869D01*
X95837Y11033D01*
X95434Y10060D01*
X95296Y9016D01*
X95434Y7971D01*
X95837Y6999D01*
X96478Y6163D01*
X97313Y5522D01*
X98286Y5119D01*
X99331Y4981D01*
X100375Y5119D01*
X101348Y5522D01*
X102183Y6163D01*
X102825Y6999D01*
X103228Y7971D01*
X103365Y9016D01*
X103228Y10060D01*
X102825Y11033D01*
X102183Y11869D01*
X101348Y12510D01*
X100375Y12913D01*
X99331Y13050D01*
D02*
G37*
G36*
X89331D02*
X88287Y12913D01*
X87313Y12510D01*
X86478Y11869D01*
X85837Y11033D01*
X85434Y10060D01*
X85296Y9016D01*
X85434Y7971D01*
X85837Y6999D01*
X86478Y6163D01*
X87313Y5522D01*
X88287Y5119D01*
X89331Y4981D01*
X90375Y5119D01*
X91348Y5522D01*
X92184Y6163D01*
X92825Y6999D01*
X93228Y7971D01*
X93365Y9016D01*
X93228Y10060D01*
X92825Y11033D01*
X92184Y11869D01*
X91348Y12510D01*
X90375Y12913D01*
X89331Y13050D01*
D02*
G37*
G36*
X63631Y20465D02*
X62655Y20271D01*
X61828Y19718D01*
X61276Y18891D01*
X61082Y17916D01*
X61276Y16940D01*
X61828Y16113D01*
X62655Y15561D01*
X63631Y15367D01*
X64606Y15561D01*
X65433Y16113D01*
X65615Y16386D01*
X69797D01*
X75636Y10548D01*
X75434Y10060D01*
X75296Y9016D01*
X75434Y7971D01*
X75837Y6999D01*
X76478Y6163D01*
X77313Y5522D01*
X78286Y5119D01*
X79331Y4981D01*
X80375Y5119D01*
X81348Y5522D01*
X82183Y6163D01*
X82825Y6999D01*
X83228Y7971D01*
X83365Y9016D01*
X83228Y10060D01*
X82825Y11033D01*
X82183Y11869D01*
X81348Y12510D01*
X80375Y12913D01*
X79331Y13050D01*
X78286Y12913D01*
X77799Y12711D01*
X71512Y18997D01*
X71016Y19329D01*
X70431Y19445D01*
X65615D01*
X65433Y19718D01*
X64606Y20271D01*
X63631Y20465D01*
D02*
G37*
G36*
X69331Y13050D02*
X68287Y12913D01*
X67313Y12510D01*
X66478Y11869D01*
X65837Y11033D01*
X65434Y10060D01*
X65296Y9016D01*
X65434Y7971D01*
X65837Y6999D01*
X66478Y6163D01*
X67313Y5522D01*
X68287Y5119D01*
X69331Y4981D01*
X70375Y5119D01*
X71348Y5522D01*
X72184Y6163D01*
X72825Y6999D01*
X73228Y7971D01*
X73365Y9016D01*
X73228Y10060D01*
X72825Y11033D01*
X72184Y11869D01*
X71348Y12510D01*
X70375Y12913D01*
X69331Y13050D01*
D02*
G37*
G36*
X59331D02*
X58286Y12913D01*
X57313Y12510D01*
X56478Y11869D01*
X55837Y11033D01*
X55434Y10060D01*
X55296Y9016D01*
X55434Y7971D01*
X55837Y6999D01*
X56478Y6163D01*
X57313Y5522D01*
X58286Y5119D01*
X59331Y4981D01*
X60375Y5119D01*
X61348Y5522D01*
X62183Y6163D01*
X62825Y6999D01*
X63228Y7971D01*
X63365Y9016D01*
X63228Y10060D01*
X62825Y11033D01*
X62183Y11869D01*
X61348Y12510D01*
X60375Y12913D01*
X59331Y13050D01*
D02*
G37*
%LPD*%
D14*
X130931Y129616D02*
Y153873D01*
X34431Y151016D02*
X50031D01*
X55131Y145916D01*
X64131D01*
X157831Y148016D02*
X162831Y143016D01*
X150231Y148016D02*
X157831D01*
X147931Y150316D02*
X150231Y148016D01*
X147931Y150316D02*
Y155516D01*
X144731Y158716D02*
X147931Y155516D01*
X129031Y158716D02*
X144731D01*
X124931Y154616D02*
X129031Y158716D01*
X34131Y130716D02*
X64331D01*
X46431Y155116D02*
X57831D01*
X45331Y154016D02*
X46431Y155116D01*
X42233Y154016D02*
X45331D01*
X61331Y152715D02*
Y156516D01*
X59081Y158766D02*
X61331Y156516D01*
X40831Y158766D02*
X59081D01*
X57981Y149365D02*
X61331Y152715D01*
X59231Y163516D02*
X64231Y158516D01*
X44531Y163516D02*
X59231D01*
X174531Y23816D02*
X189331Y9016D01*
X166631Y21716D02*
X179331Y9016D01*
X158631Y19716D02*
X169331Y9016D01*
X150731Y17616D02*
X159331Y9016D01*
X142731Y15616D02*
X149331Y9016D01*
X8231Y130816D02*
X8331Y130916D01*
X14831D01*
X8231Y130316D02*
Y130816D01*
X79131Y159016D02*
X81781Y161666D01*
X77231Y164716D02*
X78431D01*
X75231Y162716D02*
X77231Y164716D01*
X67231Y166116D02*
X72131Y171016D01*
X71831Y164316D02*
X75331Y167816D01*
X130931Y129616D02*
X131331Y130016D01*
X67231Y150916D02*
Y166116D01*
X71831Y150916D02*
Y164316D01*
X79131Y150516D02*
Y159016D01*
X75231Y147716D02*
Y162716D01*
X64231Y158516D02*
X64331D01*
X67031Y58016D02*
X70431Y54616D01*
X61831Y58016D02*
X67031D01*
X70431Y54616D02*
X83431D01*
X63631Y17916D02*
X70431D01*
X133531Y25916D02*
X182431D01*
X122231Y37216D02*
X133531Y25916D01*
X133581Y25866D01*
X121955Y33209D02*
X131348Y23816D01*
X121712Y28997D02*
X128993Y21716D01*
X121891Y24576D02*
X126751Y19716D01*
X131348Y23816D02*
X174531D01*
X117258Y24543D02*
X124185Y17616D01*
X128993Y21716D02*
X166631D01*
X126751Y19716D02*
X158631D01*
X124185Y17616D02*
X150731D01*
X117331Y20016D02*
X121731Y15616D01*
X142731D01*
X182431Y25916D02*
X199331Y9016D01*
X70431Y17916D02*
X79331Y9016D01*
D77*
X130131Y100016D02*
X136931D01*
X128331Y98216D02*
X130131Y100016D01*
X128331Y75516D02*
Y98216D01*
D81*
X175331Y193016D02*
X187031Y181316D01*
Y178216D02*
Y181316D01*
X159831Y100516D02*
X175831Y84516D01*
X159831Y100516D02*
Y110516D01*
X129331Y199016D02*
X135331Y193016D01*
X175331D01*
D85*
X15748Y238189D02*
D03*
Y318898D02*
D03*
X200787Y175197D02*
D03*
X15748Y183071D02*
D03*
Y15748D02*
D03*
X129331Y9016D02*
D03*
X119331D02*
D03*
X109331D02*
D03*
X99331D02*
D03*
X89331D02*
D03*
X79331D02*
D03*
X69331D02*
D03*
X59331D02*
D03*
X129331Y199016D02*
D03*
X139331D02*
D03*
X149331D02*
D03*
X159331D02*
D03*
X169331D02*
D03*
X179331D02*
D03*
X189331D02*
D03*
X199331D02*
D03*
X113331D02*
D03*
X103331D02*
D03*
X93331D02*
D03*
X83331D02*
D03*
X73331D02*
D03*
X63331D02*
D03*
X53331D02*
D03*
X43331D02*
D03*
X33331D02*
D03*
X23331D02*
D03*
X149331Y9016D02*
D03*
X159331D02*
D03*
X169331D02*
D03*
X179331D02*
D03*
X189331D02*
D03*
X199331D02*
D03*
X142831Y153016D02*
D03*
X152831Y143016D02*
D03*
Y153016D02*
D03*
X162831Y143016D02*
D03*
Y153016D02*
D03*
D86*
X142831Y143016D02*
D03*
D87*
X197301Y120632D02*
D03*
Y140317D02*
D03*
D88*
X207931Y116695D02*
D03*
Y144254D02*
D03*
D89*
X70331Y66903D02*
D03*
X85218Y41634D02*
D03*
X34431Y151016D02*
D03*
X124931Y154616D02*
D03*
X64131Y145916D02*
D03*
X23431Y166258D02*
D03*
X32289Y142974D02*
D03*
X34131Y130716D02*
D03*
X64331D02*
D03*
X42233Y154016D02*
D03*
X57981Y149365D02*
D03*
X40831Y158766D02*
D03*
X8231Y130816D02*
D03*
X14831Y130916D02*
D03*
X175231Y62516D02*
D03*
X90876Y140891D02*
D03*
X130331Y153873D02*
D03*
X66631Y48010D02*
D03*
X187031Y178216D02*
D03*
X88631Y61516D02*
D03*
X137531Y100016D02*
D03*
X76831Y119016D02*
D03*
X128331Y75516D02*
D03*
X102504Y132063D02*
D03*
X204631Y79216D02*
D03*
X44531Y163516D02*
D03*
X81781Y161666D02*
D03*
X57831Y155116D02*
D03*
X72131Y171016D02*
D03*
X75331Y167816D02*
D03*
X78431Y164716D02*
D03*
X79131Y150516D02*
D03*
X75231Y147716D02*
D03*
X71831Y150916D02*
D03*
X67231D02*
D03*
X130931Y129616D02*
D03*
X122531Y144916D02*
D03*
X85531Y148816D02*
D03*
X30231Y83016D02*
D03*
X29931Y103116D02*
D03*
X105731Y157816D02*
D03*
X122231Y37216D02*
D03*
X121955Y33209D02*
D03*
X117331Y20016D02*
D03*
X121891Y24576D02*
D03*
X121712Y28997D02*
D03*
X117258Y24543D02*
D03*
X151831Y76516D02*
D03*
X117831Y54016D02*
D03*
X128331Y46016D02*
D03*
X183831Y151256D02*
D03*
Y106776D02*
D03*
X175831Y84516D02*
D03*
X159831Y110516D02*
D03*
X64231Y158516D02*
D03*
X17764Y64449D02*
D03*
X147831Y99016D02*
D03*
X61831Y58016D02*
D03*
X83431Y54616D02*
D03*
X63631Y17916D02*
D03*
X143431Y30016D02*
D03*
X47146Y41437D02*
D03*
X172731Y136616D02*
D03*
X162331Y31216D02*
D03*
M02*
