G04*
G04 #@! TF.GenerationSoftware,Altium Limited,Altium Designer,18.1.7 (191)*
G04*
G04 Layer_Color=16711935*
%FSLAX25Y25*%
%MOIN*%
G70*
G01*
G75*
%ADD46C,0.06800*%
%ADD47R,0.06800X0.06800*%
%ADD48C,0.06343*%
%ADD49C,0.07887*%
D46*
X15748Y238189D02*
D03*
Y318898D02*
D03*
X200787Y175197D02*
D03*
X15748Y183071D02*
D03*
Y15748D02*
D03*
X129331Y9016D02*
D03*
X119331D02*
D03*
X109331D02*
D03*
X99331D02*
D03*
X89331D02*
D03*
X79331D02*
D03*
X69331D02*
D03*
X59331D02*
D03*
X129331Y199016D02*
D03*
X139331D02*
D03*
X149331D02*
D03*
X159331D02*
D03*
X169331D02*
D03*
X179331D02*
D03*
X189331D02*
D03*
X199331D02*
D03*
X113331D02*
D03*
X103331D02*
D03*
X93331D02*
D03*
X83331D02*
D03*
X73331D02*
D03*
X63331D02*
D03*
X53331D02*
D03*
X43331D02*
D03*
X33331D02*
D03*
X23331D02*
D03*
X149331Y9016D02*
D03*
X159331D02*
D03*
X169331D02*
D03*
X179331D02*
D03*
X189331D02*
D03*
X199331D02*
D03*
X142831Y153016D02*
D03*
X152831Y143016D02*
D03*
Y153016D02*
D03*
X162831Y143016D02*
D03*
Y153016D02*
D03*
D47*
X142831Y143016D02*
D03*
D48*
X197301Y120632D02*
D03*
Y140317D02*
D03*
D49*
X207931Y116695D02*
D03*
Y144254D02*
D03*
M02*
