G04*
G04 #@! TF.GenerationSoftware,Altium Limited,Altium Designer,18.1.7 (191)*
G04*
G04 Layer_Color=8388736*
%FSLAX25Y25*%
%MOIN*%
G70*
G01*
G75*
%ADD20R,0.05524X0.06706*%
%ADD21R,0.06312X0.06706*%
%ADD22R,0.04800X0.07493*%
G04:AMPARAMS|DCode=23|XSize=74.93mil|YSize=53.28mil|CornerRadius=0mil|HoleSize=0mil|Usage=FLASHONLY|Rotation=315.000|XOffset=0mil|YOffset=0mil|HoleType=Round|Shape=Rectangle|*
%AMROTATEDRECTD23*
4,1,4,-0.04533,0.00766,-0.00766,0.04533,0.04533,-0.00766,0.00766,-0.04533,-0.04533,0.00766,0.0*
%
%ADD23ROTATEDRECTD23*%

%ADD24O,0.02926X0.10642*%
%ADD25O,0.10642X0.02926*%
%ADD26R,0.10642X0.02926*%
%ADD27R,0.06312X0.07099*%
G04:AMPARAMS|DCode=28|XSize=70.99mil|YSize=63.12mil|CornerRadius=17.78mil|HoleSize=0mil|Usage=FLASHONLY|Rotation=90.000|XOffset=0mil|YOffset=0mil|HoleType=Round|Shape=RoundedRectangle|*
%AMROUNDEDRECTD28*
21,1,0.07099,0.02756,0,0,90.0*
21,1,0.03543,0.06312,0,0,90.0*
1,1,0.03556,0.01378,0.01772*
1,1,0.03556,0.01378,-0.01772*
1,1,0.03556,-0.01378,-0.01772*
1,1,0.03556,-0.01378,0.01772*
%
%ADD28ROUNDEDRECTD28*%
%ADD29R,0.07493X0.04800*%
G04:AMPARAMS|DCode=30|XSize=48mil|YSize=74.93mil|CornerRadius=0mil|HoleSize=0mil|Usage=FLASHONLY|Rotation=315.000|XOffset=0mil|YOffset=0mil|HoleType=Round|Shape=Rectangle|*
%AMROTATEDRECTD30*
4,1,4,-0.04346,-0.00952,0.00952,0.04346,0.04346,0.00952,-0.00952,-0.04346,-0.04346,-0.00952,0.0*
%
%ADD30ROTATEDRECTD30*%

G04:AMPARAMS|DCode=31|XSize=48mil|YSize=74.93mil|CornerRadius=0mil|HoleSize=0mil|Usage=FLASHONLY|Rotation=225.000|XOffset=0mil|YOffset=0mil|HoleType=Round|Shape=Rectangle|*
%AMROTATEDRECTD31*
4,1,4,-0.00952,0.04346,0.04346,-0.00952,0.00952,-0.04346,-0.04346,0.00952,-0.00952,0.04346,0.0*
%
%ADD31ROTATEDRECTD31*%

%ADD32R,0.08674X0.06706*%
%ADD33R,0.07099X0.05131*%
%ADD34R,0.06706X0.05524*%
%ADD35R,0.07099X0.07887*%
%ADD36R,0.06706X0.06036*%
%ADD37R,0.06706X0.05524*%
%ADD38R,0.03753X0.05131*%
%ADD39R,0.07493X0.13398*%
%ADD40R,0.06706X0.04737*%
%ADD41R,0.03556X0.05524*%
%ADD42R,0.03359X0.05524*%
%ADD43R,0.14973X0.06706*%
%ADD44R,0.06115X0.02100*%
%ADD45R,0.06902X0.06706*%
%ADD46C,0.06800*%
%ADD47R,0.06800X0.06800*%
%ADD48C,0.06343*%
%ADD49C,0.07887*%
D20*
X14665Y51870D02*
D03*
X22933D02*
D03*
X22874Y73016D02*
D03*
X14606D02*
D03*
X22874Y93016D02*
D03*
X14606D02*
D03*
X22874Y113016D02*
D03*
X14606D02*
D03*
X155697Y104516D02*
D03*
X163965D02*
D03*
X168297Y167016D02*
D03*
X176565D02*
D03*
D21*
X23858Y83016D02*
D03*
X14803D02*
D03*
X23858Y103016D02*
D03*
X14803D02*
D03*
X155303Y95516D02*
D03*
X164358D02*
D03*
X24016Y41535D02*
D03*
X14961D02*
D03*
D22*
X78331Y62016D02*
D03*
X70331D02*
D03*
X192231Y65016D02*
D03*
X184231D02*
D03*
D23*
X104653Y147823D02*
D03*
X107158Y136409D02*
D03*
X100198Y143368D02*
D03*
X111612Y140863D02*
D03*
D24*
X119079Y71909D02*
D03*
X115929D02*
D03*
X112779D02*
D03*
X109630D02*
D03*
X106480D02*
D03*
X103331D02*
D03*
X100181D02*
D03*
X97031D02*
D03*
X93882D02*
D03*
X90732D02*
D03*
X87583D02*
D03*
Y121122D02*
D03*
X90732D02*
D03*
X93882D02*
D03*
X97031D02*
D03*
X100181D02*
D03*
X103331D02*
D03*
X106480D02*
D03*
X109630D02*
D03*
X112779D02*
D03*
X115929D02*
D03*
X119079D02*
D03*
D25*
X78724Y80768D02*
D03*
Y83917D02*
D03*
Y87067D02*
D03*
Y90216D02*
D03*
Y93366D02*
D03*
Y96516D02*
D03*
Y99665D02*
D03*
Y102815D02*
D03*
Y105965D02*
D03*
Y109114D02*
D03*
Y112264D02*
D03*
X127937D02*
D03*
Y109114D02*
D03*
Y105965D02*
D03*
Y102815D02*
D03*
Y99665D02*
D03*
Y96516D02*
D03*
Y93366D02*
D03*
Y83917D02*
D03*
Y90216D02*
D03*
Y87067D02*
D03*
D26*
Y80768D02*
D03*
D27*
X14572Y171171D02*
D03*
X32289D02*
D03*
Y138061D02*
D03*
X14572D02*
D03*
D28*
X23431Y171171D02*
D03*
D29*
X167031Y68216D02*
D03*
Y76216D02*
D03*
X167831Y39516D02*
D03*
Y31516D02*
D03*
X68231Y112716D02*
D03*
Y120716D02*
D03*
D30*
X117859Y148887D02*
D03*
X112202Y154544D02*
D03*
D31*
X91802Y150887D02*
D03*
X97459Y156544D02*
D03*
D32*
X203831Y87217D02*
D03*
Y99815D02*
D03*
Y70315D02*
D03*
Y57717D02*
D03*
D33*
X128331Y62634D02*
D03*
Y52398D02*
D03*
X145831Y104634D02*
D03*
Y94398D02*
D03*
X80331Y31398D02*
D03*
Y41634D02*
D03*
D34*
X183831Y113382D02*
D03*
Y121650D02*
D03*
Y144650D02*
D03*
Y136382D02*
D03*
D35*
X147919Y167116D02*
D03*
X158942D02*
D03*
D36*
X140331Y54244D02*
D03*
Y62787D02*
D03*
D37*
X141831Y45150D02*
D03*
Y36882D02*
D03*
X158331Y68382D02*
D03*
Y76650D02*
D03*
X167831Y121650D02*
D03*
Y113382D02*
D03*
X175831Y121650D02*
D03*
Y113382D02*
D03*
D38*
X150850Y35094D02*
D03*
X158331D02*
D03*
X154590Y44937D02*
D03*
Y52095D02*
D03*
X162071D02*
D03*
X158331Y61937D02*
D03*
D39*
X202520Y44516D02*
D03*
D40*
X176535Y35461D02*
D03*
Y44516D02*
D03*
Y53571D02*
D03*
D41*
X70371Y31509D02*
D03*
X62890D02*
D03*
D42*
Y43123D02*
D03*
X66631D02*
D03*
X70371D02*
D03*
D43*
X187831Y99965D02*
D03*
Y81067D02*
D03*
D44*
X197399Y125357D02*
D03*
Y127916D02*
D03*
Y130475D02*
D03*
Y133034D02*
D03*
Y135593D02*
D03*
D45*
X207931Y126538D02*
D03*
Y134412D02*
D03*
Y118467D02*
D03*
Y142483D02*
D03*
D46*
X15748Y238189D02*
D03*
Y318898D02*
D03*
X200787Y175197D02*
D03*
X15748Y183071D02*
D03*
Y15748D02*
D03*
X129331Y9016D02*
D03*
X119331D02*
D03*
X109331D02*
D03*
X99331D02*
D03*
X89331D02*
D03*
X79331D02*
D03*
X69331D02*
D03*
X59331D02*
D03*
X129331Y199016D02*
D03*
X139331D02*
D03*
X149331D02*
D03*
X159331D02*
D03*
X169331D02*
D03*
X179331D02*
D03*
X189331D02*
D03*
X199331D02*
D03*
X113331D02*
D03*
X103331D02*
D03*
X93331D02*
D03*
X83331D02*
D03*
X73331D02*
D03*
X63331D02*
D03*
X53331D02*
D03*
X43331D02*
D03*
X33331D02*
D03*
X23331D02*
D03*
X149331Y9016D02*
D03*
X159331D02*
D03*
X169331D02*
D03*
X179331D02*
D03*
X189331D02*
D03*
X199331D02*
D03*
X142831Y153016D02*
D03*
X152831Y143016D02*
D03*
Y153016D02*
D03*
X162831Y143016D02*
D03*
Y153016D02*
D03*
D47*
X142831Y143016D02*
D03*
D48*
X197301Y120632D02*
D03*
Y140317D02*
D03*
D49*
X207931Y116695D02*
D03*
Y144254D02*
D03*
M02*
