M48
;Layer_Color=9474304
;FILE_FORMAT=2:5
INCH,LZ
;TYPE=PLATED
T1F00S00C0.01500
T2F00S00C0.03000
T3F00S00C0.03543
T4F00S00C0.04724
;TYPE=NON_PLATED
T5F00S00C0.03150
T6F00S00C0.03937
T7F00S00C0.11811
%
T01
X0047146Y0041437
X0066631Y004801
X0083431Y0054616
X0085218Y0041634
X0122231Y0037216
X0121955Y0033209
X0121712Y0028997
X0121891Y0024576
X0117258Y0024543
X0117331Y0020016
X0117831Y0054016
X0128331Y0046016
X0143431Y0030016
X0162331Y0031216
X0063631Y0017916
X0061831Y0058016
X0070331Y0066903
X0088631Y0061516
X0128331Y0075516
X0151831Y0076516
X0147831Y0099016
X0137531Y0100016
X0159831Y0110516
X0183831Y0106776
X0175831Y0084516
X0175231Y0062516
X0204631Y0079216
X0172731Y0136616
X0183831Y0151256
X0187031Y0178216
X0130331Y0153873
X0124931Y0154616
X0122531Y0144916
X0130931Y0129616
X0102504Y0132063
X0090876Y0140891
X0085531Y0148816
X0079131Y0150516
X0075231Y0147716
X0071831Y0150916
X0067231
X0064131Y0145916
X0057981Y0149365
X0057831Y0155116
X0064231Y0158516
X0072131Y0171016
X0075331Y0167816
X0078431Y0164716
X0081781Y0161666
X0105731Y0157816
X0076831Y0119016
X0064331Y0130716
X0034131
X0032289Y0142974
X0034431Y0151016
X0042233Y0154016
X0040831Y0158766
X0044531Y0163516
X0023431Y0166258
X0014831Y0130916
X0008231Y0130816
X0029931Y0103116
X0030231Y0083016
X0017764Y0064449
T02
X0059331Y0009016
X0069331
X0079331
X0089331
X0099331
X0109331
X0119331
X0129331
X0149331
X0159331
X0169331
X0179331
X0189331
X0199331
X0162831Y0143016
X0152831
X0142831
Y0153016
X0152831
X0162831
X0159331Y0199016
X0149331
X0139331
X0129331
X0113331
X0103331
X0093331
X0083331
X0073331
X0063331
X0169331
X0179331
X0189331
X0199331
X0053331
X0043331
X0033331
X0023331
T03
X0197301Y0120632
Y0140317
T04
X0207931Y0116695
Y0144254
T05
X0101181Y0209547
X0105905
X011063
X0115354
X0177953
X0182677
X0187402
X0192126
X0038583
X0033858
X0029134
X0024409
Y0223524
X0029134
X0033858
X0038583
X0101181
X0105905
X011063
X0115354
X0177953
X0182677
X0187402
X0192126
T06
X0096457Y0209941
X0120079
X0173228
X019685
X0043307
X0019685
Y022313
X0043307
X0096457
X0120079
X0173228
X019685
T07
X0015748Y0015748
X0200787Y0175197
X0015748Y0183071
Y0238189
Y0318898
M30
